<mxfile host="app.diagrams.net" agent="Mozilla/5.0 (Windows NT 10.0; Win64; x64) AppleWebKit/537.36 (KHTML, like Gecko) Chrome/141.0.0.0 Safari/537.36" version="28.2.8">
  <diagram name="Page-1" id="H1jGtOSxnCsIuGtWHTxp">
    <mxGraphModel dx="703" dy="776" grid="1" gridSize="10" guides="1" tooltips="1" connect="1" arrows="1" fold="1" page="1" pageScale="1" pageWidth="827" pageHeight="1169" math="0" shadow="0">
      <root>
        <mxCell id="0" />
        <mxCell id="1" parent="0" />
        <mxCell id="5s64dntGVu4v27lJEmFN-2" value="IdCommande :INT PRIMARY KEY IDENTITY(1,1)&lt;div&gt;DateCommande DATE&amp;nbsp; NOT NULL ;&lt;/div&gt;&lt;div&gt;Montant DECIMAL (10,2) NOT NULL;&lt;/div&gt;&lt;div&gt;Description VARCHAR(255);&lt;/div&gt;&lt;div&gt;IdClient INT NOT NULL;&lt;/div&gt;&lt;div&gt;&lt;br&gt;&lt;/div&gt;&lt;div&gt;&lt;br&gt;&lt;/div&gt;" style="rounded=0;whiteSpace=wrap;html=1;labelBackgroundColor=none;" vertex="1" parent="1">
          <mxGeometry x="470" y="585" width="290" height="190" as="geometry" />
        </mxCell>
        <mxCell id="5s64dntGVu4v27lJEmFN-16" style="edgeStyle=orthogonalEdgeStyle;rounded=0;orthogonalLoop=1;jettySize=auto;html=1;exitX=1;exitY=0.5;exitDx=0;exitDy=0;" edge="1" parent="1" source="5s64dntGVu4v27lJEmFN-3">
          <mxGeometry relative="1" as="geometry">
            <mxPoint x="460" y="685" as="targetPoint" />
          </mxGeometry>
        </mxCell>
        <mxCell id="5s64dntGVu4v27lJEmFN-3" value="Id _Client : INT PRIMARY KEY IDENTITY(1,1);&lt;div&gt;Nom : VARCHAR(200);&lt;/div&gt;&lt;div&gt;Email: VARCHAR(250);&lt;/div&gt;&lt;div&gt;Telephone&amp;nbsp; VARCHAR(20);&lt;/div&gt;&lt;div&gt;&lt;div&gt;&lt;br&gt;&lt;/div&gt;&lt;/div&gt;" style="rounded=0;whiteSpace=wrap;html=1;labelBackgroundColor=none;" vertex="1" parent="1">
          <mxGeometry x="75" y="590" width="280" height="190" as="geometry" />
        </mxCell>
        <mxCell id="5s64dntGVu4v27lJEmFN-4" value="Clients&amp;nbsp;" style="rounded=0;whiteSpace=wrap;html=1;labelBackgroundColor=none;" vertex="1" parent="1">
          <mxGeometry x="75" y="530" width="280" height="60" as="geometry" />
        </mxCell>
        <mxCell id="5s64dntGVu4v27lJEmFN-5" value="Commandes" style="rounded=0;whiteSpace=wrap;html=1;labelBackgroundColor=none;" vertex="1" parent="1">
          <mxGeometry x="470" y="525" width="290" height="60" as="geometry" />
        </mxCell>
        <mxCell id="5s64dntGVu4v27lJEmFN-6" value="GetALL(): List&amp;lt;clients&amp;gt;&lt;div&gt;GetById(id:int) : Client&lt;/div&gt;&lt;div&gt;Ajouter(c:Client): void&amp;nbsp;&lt;/div&gt;&lt;div&gt;Modifer(c:Client:) : void&lt;/div&gt;&lt;div&gt;Supprimer(id:int): void&lt;/div&gt;" style="rounded=0;whiteSpace=wrap;html=1;labelBackgroundColor=none;" vertex="1" parent="1">
          <mxGeometry x="75" y="280" width="290" height="160" as="geometry" />
        </mxCell>
        <mxCell id="5s64dntGVu4v27lJEmFN-19" style="edgeStyle=orthogonalEdgeStyle;rounded=0;orthogonalLoop=1;jettySize=auto;html=1;exitX=0.5;exitY=1;exitDx=0;exitDy=0;entryX=0.5;entryY=0;entryDx=0;entryDy=0;" edge="1" parent="1" source="5s64dntGVu4v27lJEmFN-7" target="5s64dntGVu4v27lJEmFN-5">
          <mxGeometry relative="1" as="geometry" />
        </mxCell>
        <mxCell id="5s64dntGVu4v27lJEmFN-7" value="&lt;div&gt;GetByClient(idClient:int) : List&amp;lt;Commande&amp;gt;&amp;nbsp;&lt;/div&gt;&lt;div&gt;Ajouter(cmd:Commande) : void&amp;nbsp; &amp;nbsp; &amp;nbsp;&lt;/div&gt;&lt;div&gt;Modifier(cmd:Commande) : void&amp;nbsp; &amp;nbsp; &amp;nbsp;&lt;/div&gt;&lt;div&gt;Supprimer(id:int) : void&lt;/div&gt;" style="rounded=0;whiteSpace=wrap;html=1;labelBackgroundColor=none;" vertex="1" parent="1">
          <mxGeometry x="470" y="280" width="290" height="160" as="geometry" />
        </mxCell>
        <mxCell id="5s64dntGVu4v27lJEmFN-8" value="&lt;span style=&quot;white-space: pre;&quot;&gt;&#x9;&lt;/span&gt;ClientServices" style="rounded=0;whiteSpace=wrap;html=1;labelBackgroundColor=none;" vertex="1" parent="1">
          <mxGeometry x="75" y="220" width="290" height="60" as="geometry" />
        </mxCell>
        <mxCell id="5s64dntGVu4v27lJEmFN-9" value="CommandeServices" style="rounded=0;whiteSpace=wrap;html=1;labelBackgroundColor=none;" vertex="1" parent="1">
          <mxGeometry x="470" y="220" width="290" height="60" as="geometry" />
        </mxCell>
        <mxCell id="5s64dntGVu4v27lJEmFN-10" value="Database" style="rounded=0;whiteSpace=wrap;html=1;" vertex="1" parent="1">
          <mxGeometry x="560" y="20" width="180" height="40" as="geometry" />
        </mxCell>
        <mxCell id="5s64dntGVu4v27lJEmFN-21" style="edgeStyle=orthogonalEdgeStyle;rounded=0;orthogonalLoop=1;jettySize=auto;html=1;exitX=0;exitY=0.5;exitDx=0;exitDy=0;" edge="1" parent="1" source="5s64dntGVu4v27lJEmFN-11">
          <mxGeometry relative="1" as="geometry">
            <mxPoint x="310" y="90" as="targetPoint" />
          </mxGeometry>
        </mxCell>
        <mxCell id="5s64dntGVu4v27lJEmFN-11" value="ConnectionString:string" style="rounded=0;whiteSpace=wrap;html=1;" vertex="1" parent="1">
          <mxGeometry x="560" y="60" width="180" height="60" as="geometry" />
        </mxCell>
        <mxCell id="5s64dntGVu4v27lJEmFN-12" value="RapportServices" style="rounded=0;whiteSpace=wrap;html=1;" vertex="1" parent="1">
          <mxGeometry x="120" y="30" width="180" height="60" as="geometry" />
        </mxCell>
        <mxCell id="5s64dntGVu4v27lJEmFN-22" style="edgeStyle=orthogonalEdgeStyle;rounded=0;orthogonalLoop=1;jettySize=auto;html=1;entryX=1.004;entryY=0.042;entryDx=0;entryDy=0;entryPerimeter=0;" edge="1" parent="1" source="5s64dntGVu4v27lJEmFN-13" target="5s64dntGVu4v27lJEmFN-3">
          <mxGeometry relative="1" as="geometry">
            <mxPoint x="410" y="590" as="targetPoint" />
            <Array as="points">
              <mxPoint x="400" y="120" />
              <mxPoint x="400" y="370" />
              <mxPoint x="420" y="370" />
              <mxPoint x="420" y="598" />
            </Array>
          </mxGeometry>
        </mxCell>
        <mxCell id="5s64dntGVu4v27lJEmFN-13" value="GetRapportClient(idClient:int) : string&amp;nbsp;" style="rounded=0;whiteSpace=wrap;html=1;" vertex="1" parent="1">
          <mxGeometry x="120" y="90" width="180" height="60" as="geometry" />
        </mxCell>
        <mxCell id="5s64dntGVu4v27lJEmFN-17" value="possÃ¨de" style="rounded=1;whiteSpace=wrap;html=1;" vertex="1" parent="1">
          <mxGeometry x="383.5" y="650" width="60" height="30" as="geometry" />
        </mxCell>
        <mxCell id="5s64dntGVu4v27lJEmFN-18" style="edgeStyle=orthogonalEdgeStyle;rounded=0;orthogonalLoop=1;jettySize=auto;html=1;entryX=0.524;entryY=-0.05;entryDx=0;entryDy=0;entryPerimeter=0;" edge="1" parent="1" source="5s64dntGVu4v27lJEmFN-11" target="5s64dntGVu4v27lJEmFN-9">
          <mxGeometry relative="1" as="geometry" />
        </mxCell>
        <mxCell id="5s64dntGVu4v27lJEmFN-20" style="edgeStyle=orthogonalEdgeStyle;rounded=0;orthogonalLoop=1;jettySize=auto;html=1;exitX=0.5;exitY=1;exitDx=0;exitDy=0;entryX=0.532;entryY=-0.067;entryDx=0;entryDy=0;entryPerimeter=0;" edge="1" parent="1" source="5s64dntGVu4v27lJEmFN-6" target="5s64dntGVu4v27lJEmFN-4">
          <mxGeometry relative="1" as="geometry" />
        </mxCell>
      </root>
    </mxGraphModel>
  </diagram>
</mxfile>
